<?xml version="1.0" standalone="no"?>
<!DOCTYPE svg PUBLIC "-//W3C//DTD SVG 20010904//EN"
 "http://www.w3.org/TR/2001/REC-SVG-20010904/DTD/svg10.dtd">
<svg version="1.0" xmlns="http://www.w3.org/2000/svg"
    width="199.000000pt" height="240.000000pt" viewBox="0 0 199.000000 240.000000"
    preserveAspectRatio="xMidYMid meet">

    <g transform="translate(0.000000,240.000000) scale(0.100000,-0.100000)"
        fill="" stroke="">
        <path d="M50 2281 c0 -5 24 -12 53 -16 110 -14 156 -40 185 -105 13 -27 17
        -82 20 -252 l4 -218 45 62 c25 33 83 100 129 148 l84 87 0 55 c0 75 25 152 57
        177 27 22 69 35 146 46 26 3 47 10 47 16 0 5 -152 9 -385 9 -216 0 -385 -4
        -385 -9z"/>
        <path d="M1240 2280 c0 -5 8 -10 18 -10 40 0 121 -31 146 -56 21 -22 26 -36
        26 -75 0 -94 -41 -160 -303 -483 -87 -108 -165 -213 -173 -233 -21 -52 -29
        -61 293 342 319 398 355 432 505 480 40 13 74 28 76 34 3 8 -81 11 -292 11
        -191 0 -296 -4 -296 -10z"/>
        <path d="M1110 2223 c-163 -25 -332 -98 -471 -203 -93 -70 -244 -231 -310
        -330 -155 -232 -254 -514 -275 -781 -9 -113 10 -271 47 -384 40 -126 143 -295
        165 -272 3 3 10 22 14 43 7 30 4 46 -15 83 -63 125 -90 311 -75 504 31 377
        191 741 440 1000 194 203 372 291 592 292 101 0 106 1 91 17 -29 32 -116 45
        -203 31z"/>
        <path d="M1367 1892 c-10 -10 -17 -21 -17 -23 0 -3 29 -3 64 -1 243 16 354
        -217 286 -599 -35 -193 -83 -343 -170 -524 -84 -174 -166 -293 -289 -415 -173
        -173 -317 -249 -491 -257 -85 -5 -103 -3 -170 22 -75 27 -184 45 -165 28 23
        -22 119 -54 204 -68 188 -33 368 20 558 165 259 196 489 597 569 990 23 115
        23 322 0 409 -43 162 -134 254 -276 281 -72 14 -84 13 -103 -8z"/>
        <path d="M1221 1875 c-208 -81 -401 -328 -456 -585 -7 -33 -7 -34 11 -20 18
        14 18 14 2 -5 -19 -24 -38 -88 -38 -131 0 -31 11 -48 40 -57 8 -2 2 -3 -13 -1
        l-28 4 2 -68 c3 -75 27 -180 53 -230 45 -87 128 -148 213 -157 45 -5 46 -4 21
        8 -144 68 -206 330 -144 602 60 261 162 441 316 560 55 42 111 106 93 105 -4
        -1 -37 -12 -72 -25z m-351 -619 c0 -8 -6 -18 -13 -25 -11 -8 -13 -5 -9 19 4
        29 22 33 22 6z"/>
        <path d="M532 1752 c-48 -60 -132 -199 -176 -292 l-41 -85 -5 -535 c-5 -510
        -6 -537 -25 -574 -31 -62 -71 -83 -197 -101 -98 -15 -7 -20 347 -20 212 0 385
        3 385 6 0 10 -28 19 -56 19 -50 0 -116 23 -144 51 -18 18 -32 47 -39 79 -11
        52 -17 937 -6 948 5 5 94 -10 141 -23 18 -6 22 -1 28 30 4 20 6 39 4 41 -2 2
        -20 -1 -39 -6 -19 -4 -58 -11 -86 -15 l-53 -7 -1 164 c0 89 0 207 1 261 1 53
        -1 97 -4 97 -2 0 -18 -17 -34 -38z"/>
        <path d="M916 1318 c-8 -29 -21 -88 -27 -132 -10 -65 -9 -80 2 -87 12 -7 12
        -9 0 -9 -12 0 -12 -3 1 -17 8 -10 107 -153 218 -318 112 -165 206 -304 211
        -308 7 -9 59 56 117 149 l33 52 -127 173 c-162 222 -235 319 -240 319 -3 0 -2
        -12 2 -27 4 -22 3 -25 -5 -13 -6 8 -11 27 -11 41 0 24 -135 228 -151 229 -4 0
        -14 -24 -23 -52z m34 -159 c0 -5 -4 -9 -10 -9 -5 0 -10 7 -10 16 0 8 5 12 10
        9 6 -3 10 -10 10 -16z m46 -23 c-4 -19 -11 -38 -17 -42 -10 -6 -3 60 8 79 10
        18 15 -4 9 -37z m53 9 c-6 -19 -7 -41 -3 -48 5 -8 4 -9 -4 -2 -12 11 -5 85 9
        85 4 0 3 -16 -2 -35z m-116 -35 c3 -11 1 -20 -4 -20 -5 0 -9 9 -9 20 0 11 2
        20 4 20 2 0 6 -9 9 -20z"/>
        <path d="M1507 578 c-2 -7 -35 -55 -72 -106 l-67 -93 28 -42 c15 -22 29 -60
        32 -83 4 -40 2 -44 -29 -63 -19 -12 -44 -21 -56 -21 -26 0 -53 -10 -53 -19 0
        -3 151 -6 335 -6 212 0 334 4 332 10 -2 5 -29 19 -60 31 -112 44 -145 77 -324
        322 -35 47 -63 77 -66 70z"/>
    </g>
</svg>
