<svg class="icon icon-Error-logo"><use xlink:href="#icon-Error-logo"></use>
    <symbol id="icon-Error-logo" viewBox="0 0 32 32">
        <path fill="#e74a3b" style="fill: var(--color11, #e74a3b)" d="M0 16c0-8.838 7.162-16 16-16s16 7.162 16 16c0 8.837-7.163 16-16 16s-16-7.163-16-16zM10.938 13.006l2.944 2.938-2.944 2.994c-0.581 0.588-0.581 1.538 0 2.069 0.588 0.637 1.537 0.637 2.069 0l2.938-2.888 2.994 2.888c0.588 0.637 1.538 0.637 2.069 0 0.637-0.531 0.637-1.481 0-2.069l-2.888-2.994 2.888-2.938c0.637-0.531 0.637-1.481 0-2.069-0.531-0.581-1.481-0.581-2.069 0l-2.994 2.944-2.938-2.944c-0.531-0.581-1.481-0.581-2.069 0-0.581 0.588-0.581 1.537 0 2.069z"></path>
    </symbol>
</svg>