<svg width="40" height="32" viewBox="0 0 40 32" fill="none" xmlns="http://www.w3.org/2000/svg">
    <path fill-rule="evenodd" clip-rule="evenodd" d="M6.025 0.598553C5.63861 0.743409 5.23096 1.16101 5.13357 1.51177C5.08205 1.69754 5.06353 5.55997 5.07847 13.0163L5.10095 24.2412L5.28263 24.517C5.65088 25.076 5.88157 25.1629 7.17098 25.2282C10.3821 25.3908 12.717 25.9547 15.0083 27.1208C16.471 27.8653 17.5032 28.6022 18.6093 29.6918L18.9332 30.0107L18.9298 18.5176C18.9271 9.40734 18.9063 6.96572 18.8293 6.74149C18.5808 6.01856 17.1118 4.2707 16.0616 3.44834C14.1193 1.92755 11.493 0.936947 8.64474 0.650802C7.10079 0.495719 6.33983 0.480575 6.025 0.598553ZM32.2162 0.568265C28.9145 0.787254 26.0759 1.77492 23.9387 3.44834C22.8884 4.2707 21.4195 6.01856 21.1709 6.74149C21.0939 6.96572 21.0731 9.40448 21.0704 18.5023L21.0671 29.9803L21.8101 29.3002C22.7956 28.3983 23.6981 27.7803 24.9919 27.1212C27.2817 25.955 29.6173 25.3909 32.8293 25.2282C34.1187 25.1629 34.3493 25.076 34.7176 24.517L34.8993 24.2412L34.9218 13.0163C34.9372 5.3283 34.919 1.70055 34.8641 1.50289C34.7643 1.14396 34.2839 0.680614 33.8949 0.568265C33.5797 0.477245 33.5882 0.477245 32.2162 0.568265ZM1.29042 5.68231C0.939011 5.87244 0.733929 6.10538 0.604599 6.46153C0.499581 6.75069 0.488835 8.09872 0.507431 18.6856L0.528313 30.5848L0.742998 30.8776C1.22602 31.5364 1.59015 31.6224 2.81463 31.3669C5.4224 30.8225 7.14103 30.6052 9.71169 30.4946C11.6771 30.4102 14.7392 30.6687 16.2945 31.0502C16.9832 31.2192 17.0025 31.2013 16.5578 30.8039C14.3213 28.8054 11.0855 27.6598 7.15719 27.4758C5.87959 27.416 5.2427 27.2732 4.68179 26.921C4.18322 26.6079 3.63306 26.0314 3.36167 25.5377C2.91424 24.7239 2.92895 25.0853 2.92895 14.8967V5.55759L2.224 5.55807C1.73457 5.55838 1.44917 5.59636 1.29042 5.68231ZM37.0713 14.8895C37.0713 25.086 37.086 24.7239 36.6386 25.5377C36.3672 26.0314 35.817 26.6079 35.3184 26.921C34.7575 27.2732 34.1206 27.416 32.843 27.4758C28.9147 27.6598 25.6789 28.8054 23.4424 30.8039C22.9978 31.2013 23.017 31.2192 23.7057 31.0502C25.261 30.6687 28.3232 30.4102 30.2885 30.4946C32.8592 30.6052 34.5778 30.8225 37.1856 31.3669C38.4101 31.6224 38.7742 31.5364 39.2572 30.8776L39.4719 30.5848L39.4917 18.6592C39.5109 7.11128 39.5069 6.72286 39.3674 6.3947C39.2882 6.20829 39.0934 5.9526 38.9346 5.82653C38.6666 5.61357 38.5898 5.59533 37.8586 5.5702L37.0713 5.54316V14.8895Z" />
</svg>
